<?xml version="1.0" encoding="utf-8"?>
<!-- Generator: Adobe Illustrator 19.1.0, SVG Export Plug-In . SVG Version: 6.00 Build 0)  -->
<!DOCTYPE svg PUBLIC "-//W3C//DTD SVG 1.1//EN" "http://www.w3.org/Graphics/SVG/1.1/DTD/svg11.dtd">
<svg version="1.1" xmlns="http://www.w3.org/2000/svg" xmlns:xlink="http://www.w3.org/1999/xlink" x="0px" y="0px"
	 viewBox="0 0 428 41" enable-background="new 0 0 428 41" xml:space="preserve">
<path fill="#003E7E" d="M123.8,35.3c-3.8,3.1-8.7,3.8-12.3,3.8c-12.3,0-16-7.7-16-15.7c0-7.7,5-14,16-14c6.1,0,10.2,1.8,12.3,3.6
	v6.2l-0.2-0.1c-2.1-3.1-5.7-4.9-11.8-4.9c-6,0-10.3,3.1-10.3,10.2c0,6,3.5,10.7,10.4,10.7c5.9,0,9.2-2.1,11.9-5.8V35.3z"/>
<path fill="#003E7E" d="M128.1,8.6h5.7v29.9h-5.7V8.6z"/>
<path fill="#003E7E" d="M163.3,27.8h-20.8c0,4.4,2.9,7.6,9,7.6c4.9,0,8.1-2.4,9.8-5.2l0.2-0.1V35c-1.2,1.5-4.8,4-10.5,4
	c-10.1,0-14-5.6-14-12.9c0-7.1,5-12.2,14-12.2c8.8,0,12.2,4.7,12.2,11V27.8z M159.1,24.2c0-4-2.8-6.1-8.2-6.1c-4.9,0-7.9,2-8.4,6.1
	H159.1z"/>
<path fill="#003E7E" d="M164.1,14.5h5.9l8,19.7h0.1l8-19.7h5.9l-10,24.1h-7.9L164.1,14.5z"/>
<path fill="#003E7E" d="M218.6,27.8h-20.8c0,4.4,2.9,7.6,9,7.6c4.9,0,8.1-2.4,9.8-5.2l0.2-0.1V35c-1.2,1.5-4.8,4-10.5,4
	c-10.1,0-14-5.6-14-12.9c0-7.1,5-12.2,14-12.2c8.8,0,12.2,4.7,12.2,11V27.8z M214.4,24.2c0-4-2.8-6.1-8.2-6.1c-4.9,0-7.9,2-8.4,6.1
	H214.4z"/>
<path fill="#003E7E" d="M222.6,14.5h5.6v5.3h0.1c1.1-3.1,2.7-5.8,7-5.8c2.4,0,4.1,0.6,5.3,1.3v4.6c-1.2-0.7-2.8-1.4-5.2-1.4
	c-4.9,0-7.1,3.3-7.1,9v11h-5.7V14.5z"/>
<path fill="#003E7E" d="M253.4,9.9h15.6c8.2,0,14.6,3.2,14.6,13.3c0,8.2-5.2,15.4-18.4,15.4h-11.8V9.9z M259.4,34.4h6.9
	c8.5,0,11.2-5.1,11.2-10.9c0-5.8-2.4-9.1-10.2-9.1h-7.9V34.4z"/>
<path fill="#003E7E" d="M312.2,27.8h-20.8c0,4.4,2.9,7.6,9,7.6c4.9,0,8.1-2.4,9.8-5.2l0.2-0.1V35c-1.2,1.5-4.8,4-10.5,4
	c-10.1,0-14-5.6-14-12.9c0-7.1,5-12.2,14-12.2c8.8,0,12.2,4.7,12.2,11V27.8z M308,24.2c0-4-2.8-6.1-8.2-6.1c-4.9,0-7.9,2-8.4,6.1
	H308z"/>
<path fill="#003E7E" d="M312.5,14.5h5.9l8,19.7h0.1l8-19.7h5.9l-10,24.1h-7.9L312.5,14.5z"/>
<path fill="#003E7E" d="M346.3,8.6c1.8,0,3.8,0.4,3.8,2c0,1.7-1.9,2-3.8,2s-3.8-0.4-3.8-2C342.5,9,344.5,8.6,346.3,8.6z M343.5,14.5
	c0.7,0.3,1.9,0.4,2.9,0.4s2.2-0.1,2.9-0.4v24.1h-5.7V14.5z"/>
<path fill="#003E7E" d="M376.2,22.2c-2.6-2.7-5.1-3.9-9.4-3.9c-6.4,0-8.9,3.4-8.9,7.9c0,5.1,2.5,9,8.9,9c4.4,0,7.9-2.2,9.4-5.1v5
	c-2.3,2.9-6.4,4-9.7,4c-10.1,0-14.1-5.6-14.1-12.9c0-7.1,4-12.2,14.1-12.2c3.4,0,6.9,0.8,9.7,2.9V22.2z"/>
<path fill="#003E7E" d="M404.6,27.8h-20.8c0,4.4,2.9,7.6,9,7.6c4.9,0,8-2.4,9.8-5.2l0.2-0.1V35c-1.2,1.5-4.8,4-10.5,4
	c-10.1,0-14.1-5.6-14.1-12.9c0-7.1,5-12.2,14.1-12.2c8.8,0,12.2,4.7,12.2,11V27.8z M400.4,24.2c0-4-2.8-6.1-8.2-6.1
	c-4.9,0-7.9,2-8.4,6.1H400.4z"/>
<path fill="#003E7E" d="M426.7,20.7c-2.1-1.7-4.8-2.4-7.9-2.4c-3.4,0-5.9,0.9-5.9,3c0,5.5,15,1.4,15,10.5c0,4.7-5.6,7.4-10.6,7.4
	c-4.2,0-7.1-1-9-2.2v-4.6c2.2,1.9,5.3,2.9,8.6,2.9c2.8,0,5.9-0.8,5.9-3.1c0-5.8-15.6-1.4-15.6-10.5c0-5,5.1-7.7,10.6-7.7
	c3.8,0,6.3,0.5,9,1.9V20.7z"/>
<path fill="#D11242" d="M64.9,16.9c0,0-3.9,24.5-43.2,24.5c-39.3,0-12.2-19.7-12.2-19.7S31.7,34.9,64.9,16.9z"/>
<path fill="#003E7E" d="M24.5,24.8c0,0,3.8-24.6,43.1-24.6c39.3-0.1,12.2,19.7,12.2,19.7S57.7,6.8,24.5,24.8z"/>
</svg>
