<?xml version="1.0" encoding="utf-8"?>
<!-- Generator: Adobe Illustrator 19.1.0, SVG Export Plug-In . SVG Version: 6.00 Build 0)  -->
<!DOCTYPE svg PUBLIC "-//W3C//DTD SVG 1.1//EN" "http://www.w3.org/Graphics/SVG/1.1/DTD/svg11.dtd">
<svg version="1.1" id="Layer_1" xmlns="http://www.w3.org/2000/svg" xmlns:xlink="http://www.w3.org/1999/xlink" x="0px" y="0px"
	 viewBox="-73 268 428 41" style="enable-background:new -73 268 428 41;" xml:space="preserve">
<style type="text/css">
	.st0{fill:#FFFFFF;}
</style>
<path class="st0" d="M50.8,303.3c-3.8,3.1-8.7,3.8-12.3,3.8c-12.3,0-16-7.7-16-15.7c0-7.7,5-14,16-14c6.1,0,10.2,1.8,12.3,3.6v6.2
	l-0.2-0.1c-2.1-3.1-5.7-4.9-11.8-4.9c-6,0-10.3,3.1-10.3,10.2c0,6,3.5,10.7,10.4,10.7c5.9,0,9.2-2.1,11.9-5.8V303.3z"/>
<path class="st0" d="M55.1,276.6h5.7v29.9h-5.7V276.6z"/>
<path class="st0" d="M90.3,295.8H69.5c0,4.4,2.9,7.6,9,7.6c4.9,0,8.1-2.4,9.8-5.2l0.2-0.1v4.9c-1.2,1.5-4.8,4-10.5,4
	c-10.1,0-14-5.6-14-12.9c0-7.1,5-12.2,14-12.2c8.8,0,12.2,4.7,12.2,11v2.9H90.3z M86.1,292.2c0-4-2.8-6.1-8.2-6.1
	c-4.9,0-7.9,2-8.4,6.1H86.1z"/>
<path class="st0" d="M91.1,282.5H97l8,19.7h0.1l8-19.7h5.9l-10,24.1h-7.9L91.1,282.5z"/>
<path class="st0" d="M145.6,295.8h-20.8c0,4.4,2.9,7.6,9,7.6c4.9,0,8.1-2.4,9.8-5.2l0.2-0.1v4.9c-1.2,1.5-4.8,4-10.5,4
	c-10.1,0-14-5.6-14-12.9c0-7.1,5-12.2,14-12.2c8.8,0,12.2,4.7,12.2,11v2.9H145.6z M141.4,292.2c0-4-2.8-6.1-8.2-6.1
	c-4.9,0-7.9,2-8.4,6.1H141.4z"/>
<path class="st0" d="M149.6,282.5h5.6v5.3h0.1c1.1-3.1,2.7-5.8,7-5.8c2.4,0,4.1,0.6,5.3,1.3v4.6c-1.2-0.7-2.8-1.4-5.2-1.4
	c-4.9,0-7.1,3.3-7.1,9v11h-5.7L149.6,282.5L149.6,282.5z"/>
<path class="st0" d="M180.4,277.9H196c8.2,0,14.6,3.2,14.6,13.3c0,8.2-5.2,15.4-18.4,15.4h-11.8L180.4,277.9L180.4,277.9z
	 M186.4,302.4h6.9c8.5,0,11.2-5.1,11.2-10.9s-2.4-9.1-10.2-9.1h-7.9V302.4z"/>
<path class="st0" d="M239.2,295.8h-20.8c0,4.4,2.9,7.6,9,7.6c4.9,0,8.1-2.4,9.8-5.2l0.2-0.1v4.9c-1.2,1.5-4.8,4-10.5,4
	c-10.1,0-14-5.6-14-12.9c0-7.1,5-12.2,14-12.2c8.8,0,12.2,4.7,12.2,11L239.2,295.8L239.2,295.8z M235,292.2c0-4-2.8-6.1-8.2-6.1
	c-4.9,0-7.9,2-8.4,6.1H235z"/>
<path class="st0" d="M239.5,282.5h5.9l8,19.7h0.1l8-19.7h5.9l-10,24.1h-7.9L239.5,282.5z"/>
<path class="st0" d="M273.3,276.6c1.8,0,3.8,0.4,3.8,2c0,1.7-1.9,2-3.8,2s-3.8-0.4-3.8-2S271.5,276.6,273.3,276.6z M270.5,282.5
	c0.7,0.3,1.9,0.4,2.9,0.4s2.2-0.1,2.9-0.4v24.1h-5.7L270.5,282.5L270.5,282.5z"/>
<path class="st0" d="M303.2,290.2c-2.6-2.7-5.1-3.9-9.4-3.9c-6.4,0-8.9,3.4-8.9,7.9c0,5.1,2.5,9,8.9,9c4.4,0,7.9-2.2,9.4-5.1v5
	c-2.3,2.9-6.4,4-9.7,4c-10.1,0-14.1-5.6-14.1-12.9c0-7.1,4-12.2,14.1-12.2c3.4,0,6.9,0.8,9.7,2.9V290.2z"/>
<path class="st0" d="M331.6,295.8h-20.8c0,4.4,2.9,7.6,9,7.6c4.9,0,8-2.4,9.8-5.2l0.2-0.1v4.9c-1.2,1.5-4.8,4-10.5,4
	c-10.1,0-14.1-5.6-14.1-12.9c0-7.1,5-12.2,14.1-12.2c8.8,0,12.2,4.7,12.2,11L331.6,295.8L331.6,295.8z M327.4,292.2
	c0-4-2.8-6.1-8.2-6.1c-4.9,0-7.9,2-8.4,6.1H327.4z"/>
<path class="st0" d="M353.7,288.7c-2.1-1.7-4.8-2.4-7.9-2.4c-3.4,0-5.9,0.9-5.9,3c0,5.5,15,1.4,15,10.5c0,4.7-5.6,7.4-10.6,7.4
	c-4.2,0-7.1-1-9-2.2v-4.6c2.2,1.9,5.3,2.9,8.6,2.9c2.8,0,5.9-0.8,5.9-3.1c0-5.8-15.6-1.4-15.6-10.5c0-5,5.1-7.7,10.6-7.7
	c3.8,0,6.3,0.5,9,1.9v4.8H353.7z"/>
<path class="st0" d="M-8.1,284.9c0,0-3.9,24.5-43.2,24.5s-12.2-19.7-12.2-19.7S-41.3,302.9-8.1,284.9z"/>
<path class="st0" d="M-48.5,292.8c0,0,3.8-24.6,43.1-24.6c39.3-0.1,12.2,19.7,12.2,19.7S-15.3,274.8-48.5,292.8z"/>
</svg>
