<svg id="Logo" xmlns="http://www.w3.org/2000/svg" viewBox="0 0 497.29 171.27"><defs><style>.cls-1{fill:#f3b135;}.cls-2{fill:#45b440;}.cls-3{fill:#028cdd;}.cls-4{fill:#231f20;}</style></defs><title>Artboard 1</title><path class="cls-1" d="M54.89,38.09c.4-2.08.89-4.06,1.44-5.93l.27.2c21.62,17.05,32.67,39.08,24.69,49.2A13.09,13.09,0,0,1,73.72,86c5.42-11.33,6.18-21.45.9-26.81a11.56,11.56,0,0,0-4-2.61C67.37,50.5,61.95,44,54.89,38.09Zm14,38.64a31.32,31.32,0,0,1-2.7,9.75c-1-.07-2-.18-3.09-.34a54.61,54.61,0,0,1-10-2.64A86.63,86.63,0,0,1,35,74.26c-1.61-1.06-3.21-2.19-4.81-3.38-.84-.62-1.68-1.23-2.51-1.89C6.08,51.94-5,29.91,3,19.8c7.3-9.25,28-5.31,48,8.46q-.73,2.81-1.29,5.83c-15.53-11-31.77-14.18-37.45-7-6.1,7.73,2.34,24.55,18.85,37.58,1.21,1,2.44,1.85,3.67,2.71,1.78,1.25,3.58,2.41,5.36,3.45a62.75,62.75,0,0,0,10.63,5,41.6,41.6,0,0,0,7.31,1.92C62.38,78.43,66.11,78.11,68.89,76.74Z"/><path class="cls-2" d="M64.79,100.3a103.43,103.43,0,0,1-9.29,10.49c-19.61,19.32-42.84,27.55-51.89,18.38S3.12,96.89,22.73,77.56c2.45-2.41,5-4.62,7.48-6.68,1.6,1.19,3.2,2.32,4.81,3.38a78.88,78.88,0,0,0-8.42,7.22C11.62,96.24,5.08,113.89,12,120.9s24.65.72,39.63-14a77.63,77.63,0,0,0,8.82-10.35A20,20,0,0,0,64.79,100.3ZM73.72,86c-.72,1.5-1.52,3-2.4,4.57a9.91,9.91,0,0,1-5.95-2.27c.3-.6.57-1.2.83-1.8a31.32,31.32,0,0,0,2.7-9.75c.32-3.86-.5-7.1-2.66-9.29-2.6-2.64-6.73-3.39-11.68-2.52A32.67,32.67,0,0,0,49,66.48a51.53,51.53,0,0,0-8.85,4.36c-1.79-1-3.58-2.2-5.36-3.45a79.15,79.15,0,0,1,13.51-7.92,54.93,54.93,0,0,1,5.44-2.12c6.61-2.17,12.5-2.52,16.88-.77a11.56,11.56,0,0,1,4,2.61C79.9,64.54,79.14,74.65,73.72,86Z"/><path class="cls-3" d="M94.72,52.49c0,27.53-10.45,49.85-23.33,49.85a12.31,12.31,0,0,1-6.6-2,20,20,0,0,1-4.34-3.79,42,42,0,0,1-7.3-13,54.61,54.61,0,0,0,10,2.64,16.61,16.61,0,0,0,2.26,2.14,9.91,9.91,0,0,0,5.95,2.27h.07c9.84,0,17.82-17,17.82-38.08s-8-38.07-17.82-38.07c-6.34,0-11.89,7.09-15.05,17.75-.56,1.88-1,3.85-1.44,5.93a77,77,0,0,0-1.33,14.39c0,1.65.07,3.26.16,4.85a54.93,54.93,0,0,0-5.44,2.12c-.15-2.28-.23-4.6-.23-7a101,101,0,0,1,1.65-18.4q.56-3,1.29-5.83C55,13,62.62,2.64,71.39,2.64,84.28,2.64,94.72,25,94.72,52.49ZM54.56,64.92A32.67,32.67,0,0,0,49,66.48a88.52,88.52,0,0,0,1.78,9.35,41.6,41.6,0,0,0,7.31,1.92A57.44,57.44,0,0,1,54.56,64.92Z"/><path class="cls-4" d="M474.24,12.27a.75.75,0,0,1,.83-.85H479a6.58,6.58,0,0,1,2.74.38,4,4,0,0,1,2.41,3.93,4.16,4.16,0,0,1-2.39,3.93v0a5.27,5.27,0,0,1,.47.75l2.37,4.33c.34.59.08,1-.59,1h-1.09a1,1,0,0,1-1-.59l-2.53-4.78h-2.51v4.52a.75.75,0,0,1-.83.85h-.93a.75.75,0,0,1-.83-.85Zm4.94,5.9a2.11,2.11,0,0,0,2.27-2.29,1.94,1.94,0,0,0-1.13-2,3.6,3.6,0,0,0-1.56-.24h-1.92v4.5Zm-.52,17.94A17.11,17.11,0,1,1,495.78,19,17.13,17.13,0,0,1,478.67,36.1Zm0-32.34A15.24,15.24,0,1,0,493.9,19,15.25,15.25,0,0,0,478.67,3.76Z"/><path class="cls-4" d="M141.91,138.89H146l9.91,25.88h-4.05l-2.68-7.55h-10.6l-2.75,7.55h-3.8Zm-2.28,15.55h8.61l-2.57-7.23c-.9-2.5-1.63-5.5-1.63-5.5h-.11s-.8,3.1-1.66,5.5Zm28-15.55h4l5.9,17.25c.65,1.88,1.59,5.53,1.59,5.53h.07s.94-3.72,1.56-5.53l5.82-17.25h3.83L181,164.77h-4.05Zm22.82,16.56c0-5.43,3.73-9.81,9.3-9.81a8.34,8.34,0,0,1,6.66,2.89,11.6,11.6,0,0,1,2.39,7.69h-14.9c.25,3.65,2.31,6.43,6.08,6.43,2.68,0,4.52-1.22,5.14-3.2h3.29c-.87,3.48-4,5.84-8.46,5.84C194,165.29,190.44,160.91,190.44,155.45Zm3.51-1.56H205.2c-.18-3.58-2.1-5.74-5.46-5.74S194.39,150.58,194,153.88Zm21.85-4.42h.11a6.5,6.5,0,0,1,5.75-3.62,3.1,3.1,0,0,1,1.23.21v3.06h-.11a4.24,4.24,0,0,0-1.37-.17,5.43,5.43,0,0,0-5.57,5.67v10.16h-3.36V146.09h3.33Zm10.11-10.57h3.51v3.76h-3.51Zm.07,7.2h3.36v18.68H226Zm6.74,16.17,8.68-10.89c.8-1,2.31-2.54,2.31-2.54v-.1s-2.31.1-3.65.1h-6.69v-2.75H248v2l-8.83,11.09c-.83,1-2.46,2.71-2.46,2.71v.1s2.46-.1,3.87-.1h7.85v2.85H232.73Zm17.53-6.82c0-5.43,3.65-9.81,9.51-9.81s9.44,4.38,9.44,9.81-3.58,9.84-9.44,9.84S250.26,160.91,250.26,155.45Zm15.52,0c0-4-2.06-7.23-6-7.23s-6,3.2-6,7.23,2.06,7.2,6,7.2S265.78,159.48,265.78,155.45Zm10.52-6.71h.11a7.25,7.25,0,0,1,6.15-3.1c4.05,0,6.55,2.19,6.55,6.09v13h-3.33V152.11c0-2.4-1.63-3.76-4.27-3.76a4.9,4.9,0,0,0-5.17,5v11.37H273V146.09h3.33Zm27.13,3.1c0-7.62,4.77-13.49,12.77-13.49a11.9,11.9,0,0,1,7.49,2.3,9.23,9.23,0,0,1,3.44,6.09h-3.69c-.61-3.16-3.18-5.29-7.31-5.29-5.72,0-8.93,4.45-8.93,10.4,0,6.19,3.54,10.36,9,10.36,4.88,0,7.23-3.17,7.56-6.85h3.69a10.53,10.53,0,0,1-3.22,7.2c-1.88,1.81-4.63,2.75-8.1,2.75C308.42,165.29,303.43,159.66,303.43,151.83Zm27.14,3.62c0-5.43,3.65-9.81,9.51-9.81s9.44,4.38,9.44,9.81-3.58,9.84-9.44,9.84S330.56,160.91,330.56,155.45Zm15.52,0c0-4-2.06-7.23-6-7.23s-6,3.2-6,7.23,2.06,7.2,6,7.2S346.08,159.48,346.08,155.45Zm7.19-9.36h3.33v2.78h.11a6.5,6.5,0,0,1,5.75-3.23,5,5,0,0,1,5,3.48h.07a6.87,6.87,0,0,1,6-3.48c3.55,0,6,2.19,6,6.09v13h-3.36V152a3.41,3.41,0,0,0-3.51-3.65,4.72,4.72,0,0,0-4.59,4.9v11.51h-3.33V152c0-2.3-1.34-3.65-3.33-3.65a5,5,0,0,0-4.81,4.9v11.51h-3.36Zm31,0h3.33V149h.11a7.08,7.08,0,0,1,6.19-3.37c5,0,8.36,3.69,8.36,9.84,0,6-3.22,9.84-8.46,9.84a7,7,0,0,1-6.11-3h-.11c0,.66.07,1.7.07,3.13v5.67h-3.36Zm14.54,9.46c0-4.1-1.77-7.17-5.35-7.17-4.12,0-6,3.2-6,7.17s1.66,7.09,6,7.09C397,162.65,398.82,159.62,398.82,155.55Zm6.17,4.28c0-4.35,3.33-5.29,8.36-5.88,2.86-.31,4.7-.76,4.7-2.68s-1.48-3.27-4.16-3.27c-3.07,0-4.56,1.39-4.67,3.62H406c.14-3.16,2.64-6,7.89-6a9.63,9.63,0,0,1,4.7,1,5.39,5.39,0,0,1,2.6,5.08v8.73c0,1.5.36,2.3,2.06,1.95h.14v2.26a5.91,5.91,0,0,1-1.81.28c-2.06,0-3.07-.94-3.44-2.92h0a7.7,7.7,0,0,1-6.51,3.13C407.89,165.15,405,163.41,405,159.83Zm13.09-1.95v-3.06a13.82,13.82,0,0,1-4.27,1.32c-3.18.52-5.28,1.08-5.28,3.65,0,2.4,1.92,3,3.87,3C416.28,162.79,418.09,160,418.09,157.88Zm11.54-9.15h.11a7.25,7.25,0,0,1,6.15-3.1c4.05,0,6.55,2.19,6.55,6.09v13H439.1V152.11c0-2.4-1.63-3.76-4.27-3.76a4.9,4.9,0,0,0-5.17,5v11.37H426.3V146.09h3.33ZM446,170.89v-2.78h.14a4.88,4.88,0,0,0,2,.35c1.34,0,2.21-.49,2.89-2.26a18.61,18.61,0,0,0,.69-2.36l-7.41-17.74H448l4,10.36c.8,2.12,1.63,5,1.63,5h.07s.9-3,1.66-5l3.87-10.36h3.51l-8.25,20.38c-1.59,3.93-3.15,4.8-5.64,4.8A9.83,9.83,0,0,1,446,170.89Z"/><path class="cls-4" d="M137.41,26.13H113.59V14.41h60.83V26.13H150.6v75.23H137.41Zm42.38,49c0,10.14,6.23,15.26,14.78,15.26a19.45,19.45,0,0,0,13.56-6l9,7.69a28.5,28.5,0,0,1-22.35,10c-12.7,0-27.48-6.1-27.48-31.51,0-24.06,13.56-31.87,25.53-31.87,13.68,0,25.53,10.14,25.53,26.14V75.11Zm26.14-10.26c-.37-9.4-5.74-14.41-13.07-14.41s-12.82,5-13.07,14.41Zm25.53-50.44h12.46v71c0,2.81,1.59,4.28,4.64,4.28h4.28v11.72h-5.5c-9,0-15.88-3.91-15.88-15Zm35.18,32.24c3.42-3.79,9.16-7.94,18.81-7.94s15.39,4.15,18.81,7.94C309,51.9,311,57,311,70.34s-2,18.56-6.72,23.81c-3.42,3.78-9.16,7.94-18.81,7.94s-15.39-4.15-18.81-7.94c-4.76-5.25-6.72-10.38-6.72-23.81S261.87,51.9,266.63,46.65Zm28.82,9c-1.83-2.57-5.74-4.52-10-4.52s-8.18,2-10,4.52c-2.32,3.3-3.05,5.74-3.05,14.66s.73,11.48,3.05,14.78c1.83,2.56,5.74,4.52,10,4.52s8.19-2,10-4.52c2.32-3.3,3.05-5.74,3.05-14.66S297.78,59,295.46,55.69Zm63.39,39.2a21.85,21.85,0,0,1-16,7.2,20.68,20.68,0,0,1-16.37-7.57c-3.54-4.64-4.64-7-4.64-24.06s1.1-19.54,4.64-24.18a20.68,20.68,0,0,1,16.37-7.57c6.35,0,11.36,2.44,16,7.33V39.44H371.3V99.9c0,18.68-12.7,27.23-26.87,27.23-7.94,0-16-4.15-21.49-10.38l9.65-7.69c3.05,3.05,7.33,5.62,12.09,5.62,8.3,0,14.17-4.76,14.17-13.43Zm-22.11-10a12.53,12.53,0,0,0,19.66,0c2.2-2.81,2.44-4.52,2.44-14.41s-.24-11.72-2.44-14.53a12.53,12.53,0,0,0-19.66,0c-2.2,2.81-2.44,4.52-2.44,14.53S334.54,82.07,336.74,84.88Zm51.05-70.47h12.46V26.87H387.79Zm0,25h12.46v61.92H387.79Zm30.78,43a26,26,0,0,0,19.54,7.94c7.09,0,12.21-2.69,12.21-7.94,0-4.4-3.3-5.74-7.57-6.1l-11-1c-10.26-.85-17.83-7-17.83-17.58,0-12.58,10-19.05,23.09-19.05,10.87,0,18.2,3.3,24.31,8.43l-7.7,9c-4.89-3.42-9.89-5.74-16.61-5.74-7.94,0-10.63,3.18-10.63,7.45,0,2.69,2,5.37,8.19,5.86l10.26.73c12.83.86,18,8.67,18,18.56,0,12.09-11.24,19-25.65,19-10,0-19.3-3.66-27.24-11.11Z"/></svg>